<?xml version="1.0" encoding="UTF-8" standalone="no"?>
<!-- Created with Inkscape (http://www.inkscape.org/) -->

<svg
   xmlns:osb="http://www.openswatchbook.org/uri/2009/osb"
   xmlns:dc="http://purl.org/dc/elements/1.1/"
   xmlns:cc="http://creativecommons.org/ns#"
   xmlns:rdf="http://www.w3.org/1999/02/22-rdf-syntax-ns#"
   xmlns:svg="http://www.w3.org/2000/svg"
   xmlns="http://www.w3.org/2000/svg"
   xmlns:sodipodi="http://sodipodi.sourceforge.net/DTD/sodipodi-0.dtd"
   xmlns:inkscape="http://www.inkscape.org/namespaces/inkscape"
   width="952.84003"
   height="403"
   id="svg2"
   version="1.1"
   inkscape:version="0.48.4 r9939"
   style="enable-background:new"
   sodipodi:docname="HornersHIDHelve.svgz"
   inkscape:export-filename="L:\working\dave.thehorners.com\HIDHelve\artwork\HornersHIDHelve.png"
   inkscape:export-xdpi="26.799007"
   inkscape:export-ydpi="26.799007">
  <defs
     id="defs4">
    <linearGradient
       id="linearGradient5292"
       osb:paint="solid">
      <stop
         style="stop-color:#ea0000;stop-opacity:1;"
         offset="0"
         id="stop5294" />
    </linearGradient>
    <inkscape:perspective
       id="perspective9"
       inkscape:persp3d-origin="372.04724 : 350.78739 : 1"
       inkscape:vp_z="744.09448 : 526.18109 : 1"
       inkscape:vp_y="0 : 1000 : 0"
       inkscape:vp_x="0 : 526.18109 : 1"
       sodipodi:type="inkscape:persp3d" />
  </defs>
  <sodipodi:namedview
     id="base"
     pagecolor="#ffffff"
     bordercolor="#666666"
     borderopacity="1.0"
     inkscape:pageopacity="0.0"
     inkscape:pageshadow="2"
     inkscape:zoom="0.24748737"
     inkscape:cx="848.22701"
     inkscape:cy="-531.65925"
     inkscape:document-units="px"
     inkscape:current-layer="layer2"
     showgrid="false"
     inkscape:snap-bbox="true"
     inkscape:bbox-paths="true"
     width="500px"
     fit-margin-top="0"
     fit-margin-left="0"
     fit-margin-right="0"
     fit-margin-bottom="0"
     borderlayer="true"
     inkscape:showpageshadow="false"
     showguides="true"
     inkscape:snap-global="false"
     inkscape:window-width="1920"
     inkscape:window-height="1176"
     inkscape:window-x="2996"
     inkscape:window-y="914"
     inkscape:window-maximized="1"
     inkscape:snap-from-guide="false">
    <inkscape:grid
       type="xygrid"
       id="grid5448"
       empspacing="5"
       visible="true"
       enabled="true"
       snapvisiblegridlinesonly="true"
       originx="1159.8px"
       originy="-970px"
       dotted="true" />
  </sodipodi:namedview>
  <metadata
     id="metadata7">
    <rdf:RDF>
      <cc:Work
         rdf:about="">
        <dc:format>image/svg+xml</dc:format>
        <dc:type
           rdf:resource="http://purl.org/dc/dcmitype/StillImage" />
        <dc:title></dc:title>
      </cc:Work>
    </rdf:RDF>
  </metadata>
  <g
     inkscape:groupmode="layer"
     id="layer2"
     inkscape:label="Helve"
     style="display:inline"
     transform="translate(1159.8,320.6378)">
    <g
       style="display:inline;enable-background:new"
       id="g3005"
       transform="matrix(-0.62962963,0,0,0.62962963,-122.84117,-383.19109)">
      <rect
         y="0"
         x="0"
         height="810"
         width="1628"
         id="rect2386"
         style="fill:#ffffff;fill-opacity:1;stroke:none" />
      <path
         style="fill:#000000"
         d="m 256.04706,706.37373 c -62.66746,-3.06039 -83.67025,-5.41324 -96.34841,-10.79352 l -3.84841,-1.63316 0.48521,-20.5 c 0.5871,-24.80485 2.37088,-35.70386 10.72002,-65.5 7.83932,-27.97674 28.1985,-87.9289 42.44879,-125 4.22845,-11 10.39015,-27.425 13.69268,-36.5 5.10911,-14.03934 11.87612,-31.09579 24.47434,-61.68834 1.40163,-3.40359 5.42624,-11.05359 8.94358,-17 5.65577,-9.56163 6.39732,-11.41866 6.41369,-16.06166 l 0.0185,-5.25 -12.38846,0 -12.38846,0 -0.63694,-12.75 c -2.31851,-46.4109 -5.60831,-159.62783 -4.66578,-160.57036 1.10231,-1.10231 14.87404,-1.10836 20.99184,-0.009 l 3.4122,0.61304 -0.66639,-16.16488 -0.66639,-16.16488 2.69136,-1.02325 c 1.8387,-0.69907 7.62187,-0.69158 18.25419,0.0236 8.55956,0.57578 46.61283,2.3966 84.56283,4.04626 37.95,1.64967 72.20401,3.25737 76.12002,3.57267 l 7.12001,0.57329 0.87999,15.17686 0.87998,15.17665 97.5,8.18676 c 53.625,4.50272 102.40511,8.43502 108.40024,8.73844 l 10.90024,0.55168 25.96771,17.06604 c 19.41828,12.76173 31.17142,19.66782 46.59976,27.3818 25.06957,12.53447 56.60703,25.80801 80.13205,33.72611 34.01719,11.44959 104.46557,26.15132 143,29.84238 11.825,1.13268 30.275,3.1798 40.99995,4.54916 31.7572,4.05476 95.6601,8.50231 143,9.9526 37.717,1.15548 96.2719,5.7306 141,11.01687 11.275,1.33255 23.2,2.66913 26.5,2.97016 26.2979,2.39896 79.4212,7.73565 85.5,8.58921 62.8157,8.82022 80.5917,12.02968 108.465,19.58335 44.1962,11.97719 67.7574,20.92181 89.3839,33.93312 4.8211,2.9006 16.4318,15.33127 19.2656,20.62626 2.4638,4.6037 7.755,20.93414 8.9246,27.54447 1.1373,6.42808 1.0744,8.20121 -0.5501,15.5 -4.4401,19.94948 -28.7655,58.182 -45.6527,71.7529 -2.3022,1.85007 -6.9454,4.36546 -10.3183,5.58975 -5.6284,2.04299 -6.5799,2.11945 -11.5752,0.93007 -17.5149,-4.17027 -30.4532,-12.2854 -60.6151,-38.01884 -11.1348,-9.50004 -31.7834,-20.39103 -50.9579,-26.87755 -24.5018,-8.28869 -72.8757,-16.6438 -116.3698,-20.09931 -10.725,-0.85207 -24.9,-2.04924 -31.5,-2.66035 -6.6,-0.61112 -35.175,-1.48396 -63.5,-1.93965 -221.3984,-3.56179 -236.61703,-4.19186 -301.99995,-12.50309 -105.7317,-13.4402 -154.24527,-22.58011 -220.08136,-41.46309 -11.31975,-3.2467 -32.28633,-8.36843 -46.5924,-11.38162 -14.30607,-3.01319 -31.36946,-6.81706 -37.91864,-8.45305 -6.54918,-1.63599 -17.9826,-4.17195 -25.4076,-5.63547 -7.425,-1.46351 -19.575,-4.15284 -27,-5.97628 -20.402,-5.01035 -55.93183,-8.52283 -86.211,-8.52283 l -16.75664,0 1.64807,3.45604 c 0.90644,1.90082 2.36166,3.73008 3.23382,4.06503 0.87216,0.33494 9.15508,1.02095 18.40649,1.52446 18.54726,1.00944 22.83229,1.83467 26.96099,5.19228 5.77166,4.69371 4.50079,15.83004 -2.23878,19.61789 -3.64085,2.04628 -4.07228,2.06148 -22.1281,0.77996 -30.01997,-2.13069 -39.04236,-0.35522 -39.73147,7.81856 -0.41856,4.96479 1.0055,8.27943 12.12054,28.21153 27.05239,48.51187 41.94856,76.77561 58.41426,110.83425 19.23999,39.79712 38.88932,88.81377 45.24976,112.87869 l 3.76144,14.23154 -11.61469,5.20351 c -12.55517,5.62484 -17.23022,7.11797 -41.55396,13.2716 -48.89988,12.37112 -107.3105,21.34686 -161.56073,24.82645 -22.17172,1.42209 -83.42245,2.01981 -104,1.01489 z"
         id="path3059"
         inkscape:connector-curvature="0" />
      <path
         id="path3057"
         style="fill:#000000"
         d="m 355.54706,698.38859 c 57.36801,-2.93291 127.09157,-14.11994 181,-29.04114 11.46213,-3.17259 29.5,-10.54649 29.5,-12.05965 0,-2.85549 -6.98166,-25.18828 -11.92473,-38.14459 -21.13684,-55.40184 -45.52972,-105.94809 -89.37297,-185.19616 -8.21562,-14.85 -15.47002,-28.8 -16.12089,-31 -0.65086,-2.2 -1.00397,-6.12073 -0.78467,-8.71272 0.34111,-4.03181 1.018,-5.28356 4.68484,-8.66354 3.53582,-3.2592 5.313,-4.09723 10.15227,-4.78727 6.6579,-0.94937 21.48403,-0.79292 38.3381,0.40456 10.32039,0.73326 11.65042,0.6366 13.25,-0.96298 0.97793,-0.97793 1.77805,-2.92601 1.77805,-4.32908 0,-3.88697 -4.4658,-5.17972 -20.7486,-6.00626 -7.81263,-0.39658 -17.23464,-1.22092 -20.93782,-1.83188 l -6.73304,-1.11083 -25.2664,-51.49211 c -30.12812,-61.40011 -32.3496,-67.49434 -28.91268,-79.31691 2.61599,-8.99871 14.95889,-20.98643 23.92531,-23.23686 1.48067,-0.37162 2.933,-1.06542 3.22741,-1.54178 0.56466,-0.91364 -2.48709,-55.12417 -3.14198,-55.81346 -0.7229,-0.76086 -172.38136,-8.46305 -173.07851,-7.76591 -0.38427,0.38428 0.862,48.24744 2.7695,106.36258 l 3.46819,105.6639 -2.03569,2.24543 c -7.09078,7.82135 -22.71406,43.19646 -40.3643,91.39512 -2.71902,7.425 -8.64182,23.175 -13.16177,35 -4.51995,11.825 -11.79306,31.85 -16.16246,44.5 -4.36941,12.65 -9.97454,28.85 -12.45584,36 -5.58895,16.1048 -16.61775,54.24303 -18.80424,65.02614 -2.90468,14.32502 -4.54762,29.70161 -4.56756,42.74861 l -0.0195,12.77475 2.71303,1.03149 c 9.19245,3.49497 40.59169,6.38973 95.28697,8.78472 20.66791,0.905 67.72223,0.44483 94.5,-0.92417 z"
         inkscape:connector-curvature="0" />
      <path
         style="fill:#000000"
         d="m 325.59082,564.19705 c 1.49162,-6.8991 5.87633,-13.22993 17.37403,-25.08535 13.06127,-13.46764 14.08221,-14.92807 14.08221,-20.14436 0,-8.04497 -9.21001,-11.46412 -15.07692,-5.59721 -1.6077,1.60769 -2.92308,3.88003 -2.92308,5.04965 0,2.01471 -0.3288,2.09069 -6.25,1.44439 -3.4375,-0.3752 -6.40413,-0.81418 -6.59251,-0.9755 -0.18839,-0.16133 0.37052,-2.74607 1.242,-5.74389 2.65652,-9.13811 10.62812,-14.68658 21.10051,-14.68658 13.47418,0 22.62637,9.30339 21.24124,21.59217 -0.80669,7.15695 -4.71388,13.22424 -14.99124,23.27912 -5.3625,5.24642 -9.75,9.89414 -9.75,10.32825 0,0.43412 5.625,0.78931 12.5,0.78931 l 12.5,0 0,6.5 0,6.5 -22.57946,0 -22.57945,0 0.70267,-3.25 z"
         id="path3055"
         inkscape:connector-curvature="0" />
      <path
         style="fill:#000000"
         d="m 370.79706,350.71201 c -4.67504,-0.36863 -4.75,-0.42891 -4.75,-3.81975 l 0,-3.44521 5.25,0.007 c 2.8875,0.004 8.1906,0.28493 11.78466,0.6245 l 6.53467,0.61738 -0.39407,3.37551 -0.39407,3.3755 -6.6406,-0.18025 c -3.65232,-0.0991 -8.77809,-0.34879 -11.39059,-0.55479 z"
         id="path3053"
         inkscape:connector-curvature="0" />
      <path
         style="fill:#000000"
         d="m 410.04706,347.9798 0,-3.53275 11.56336,0 11.56336,0 -0.31336,3.25 -0.31336,3.25 -11.25,0.28275 -11.25,0.28275 0,-3.53275 z"
         id="path3051"
         inkscape:connector-curvature="0" />
      <path
         style="fill:#000000"
         d="m 329.04823,347.7219 c -4.12436,-0.20488 -7.86177,-0.73545 -8.30536,-1.17904 -0.44359,-0.44359 -0.50783,-1.99661 -0.14276,-3.45117 0.6606,-2.63202 0.70976,-2.64457 10.30536,-2.63099 13.0004,0.0184 14.328,0.43416 13.9452,4.367 -0.34307,3.52481 -0.93307,3.63286 -15.80244,2.8942 z"
         id="path3049"
         inkscape:connector-curvature="0" />
      <path
         style="fill:#000000"
         d="m 278.43659,345.01978 c -0.30123,-0.785 -0.39961,-2.44447 -0.21861,-3.6877 0.32249,-2.21518 0.55883,-2.25504 11.80627,-1.99133 6.31246,0.148 11.82496,0.48402 12.25,0.74671 0.42505,0.2627 0.77281,1.80107 0.77281,3.41861 l 0,2.94098 -12.03138,0 c -9.49961,0 -12.14664,-0.30034 -12.57909,-1.42727 z"
         id="path3047"
         inkscape:connector-curvature="0" />
      <path
         style="fill:#000000"
         d="m 338.81453,263.80045 -0.26747,-24.6466 -3.05384,2.57044 c -1.67961,1.41374 -5.27961,3.75599 -8,5.205 l -4.94616,2.63458 -0.30374,-6.2905 c -0.17305,-3.58393 0.12645,-6.43389 0.6961,-6.62377 4.25253,-1.41751 13.58015,-8.85416 15.8993,-12.67606 2.64802,-4.36387 2.82526,-4.46398 7.95834,-4.49488 l 5.25,-0.0316 0,34.5 0,34.5 -6.48253,0 -6.48253,0 -0.26747,-24.6466 z"
         id="path3045"
         inkscape:connector-curvature="0" />
      <path
         style="fill:#000000"
         d="m 356.54706,184.72261 c -3.85,-0.20758 -7.36241,-0.7394 -7.80536,-1.18184 -0.44294,-0.44244 -0.50666,-1.99452 -0.14159,-3.44908 0.65399,-2.60571 0.79098,-2.64444 9.30536,-2.63099 11.94679,0.0189 13.32322,0.48321 12.9452,4.367 -0.34233,3.5172 -0.85131,3.62021 -14.30361,2.89491 z"
         id="path3043"
         inkscape:connector-curvature="0" />
      <path
         style="fill:#000000"
         d="m 390.00182,184.79711 c -1.13618,-0.30727 -1.43427,-1.36844 -1.12605,-4.00861 l 0.4192,-3.59072 5.12604,0.61592 c 2.81933,0.33875 6.13855,0.61983 7.37605,0.62461 1.90311,0.007 2.25,0.5483 2.25,3.50869 l 0,3.5 -6.25,-0.116 c -3.4375,-0.0638 -6.94536,-0.30405 -7.79524,-0.53389 z"
         id="path3041"
         inkscape:connector-curvature="0" />
      <path
         style="fill:#000000"
         d="m 419.04706,181.94705 0,-3.5 6,0 6,0 0,3.5 0,3.5 -6,0 -6,0 0,-3.5 z"
         id="path3039"
         inkscape:connector-curvature="0" />
      <path
         style="fill:#000000"
         d="m 305.2337,179.19705 0.31336,-3.25 11.25,-0.28275 11.25,-0.28275 0,3.53275 0,3.53275 -11.56336,0 -11.56336,0 0.31336,-3.25 z"
         id="path3037"
         inkscape:connector-curvature="0" />
      <path
         style="fill:#000000"
         d="m 277.29706,180.70454 -7.25,-0.34511 0,-3.45619 0,-3.45619 8.75,0.0137 c 12.05964,0.0188 13.25,0.43235 13.25,4.60298 0,3.27833 -0.11642,3.3772 -3.75,3.18467 -2.0625,-0.10928 -7.0125,-0.35399 -11,-0.54381 z"
         id="path3035"
         inkscape:connector-curvature="0" />
      <path
         style="fill:#000000"
         d="m 1565.7268,528.5054 c 14.0309,-6.37031 43.4614,-49.19141 48.8105,-71.01869 1.685,-6.87592 1.6852,-7.56742 0,-15.36975 -3.1389,-14.56653 -6.8478,-22.62737 -14.4547,-31.41579 -10.2401,-11.83067 -22.5708,-18.69431 -51.9651,-28.92528 -31.0965,-10.82345 -66.0246,-19.90854 -93.5743,-24.33946 -38.4985,-6.19187 -66.2714,-9.7412 -109.5,-13.9939 -22.275,-2.19136 -50.175,-5.10375 -62,-6.47198 -45.5991,-5.27613 -105.6316,-9.82957 -145.5,-11.03614 -43.8479,-1.32699 -101.0589,-5.2875 -131,-9.06864 -25.66103,-3.24064 -24.27901,-3.08834 -49.49994,-5.45492 -37.73918,-3.54122 -105.80409,-17.78504 -141.5,-29.61144 -25.86533,-8.56944 -55.67058,-20.95589 -82,-34.07751 -15.60424,-7.77659 -27.48932,-14.71187 -46.25611,-26.99176 l -25.2561,-16.52613 -105.7439,-8.8497 c -58.15914,-4.86733 -106.55603,-8.86265 -107.54866,-8.87848 -1.68586,-0.0269 -1.76012,0.87709 -1.1272,13.72122 0.37266,7.5625 0.73481,14.12938 0.80477,14.59306 0.15739,1.04316 -1.01067,1.70566 -10.12567,5.74307 -7.64603,3.38674 -15.26714,10.25455 -17.35134,15.63627 -1.60715,4.14994 -1.42724,13.72969 0.3382,18.00717 4.90773,11.89097 8.35685,19.21798 25.12257,53.3683 l 18.45826,37.59786 6.23928,0.65214 c 3.43161,0.35867 12.81077,0.66488 20.84259,0.68046 29.4845,0.0572 60.14283,3.33358 84.60331,9.04135 22.86392,5.33521 52.65854,11.92861 83.5,18.47812 25.11916,5.33432 66.18265,16.20366 66.83333,17.69051 0.18334,0.41893 1.41945,0.76169 2.74693,0.76169 1.32747,0 11.07747,2.24292 21.66666,4.98427 40.16691,10.39846 93.65865,19.49915 175.75308,29.90131 59.00077,7.47597 101.49084,9.85301 190.32834,10.64761 27.4056,0.24513 50.2569,0.71054 50.7807,1.03425 0.5238,0.3237 26.701,0.95633 58.1716,1.40583 51.3012,0.73276 60.9427,1.13849 93.2193,3.92286 80.1387,6.91323 126.0254,17.09609 157.5,34.95124 9.1702,5.20212 17.0286,10.86234 29.5,21.24805 18.6897,15.56408 24.5826,19.70308 34.4217,24.1768 12.6881,5.76913 18.4498,6.65024 24.7581,3.78613 z"
         id="path3033"
         inkscape:connector-curvature="0" />
      <path
         style="fill:#000000"
         d="m 982.17396,405.94931 c -15.41104,-4.80664 -19.04966,-26.3967 -5.88845,-34.93962 l 2.73845,-1.77752 -3.23845,-2.1625 c -6.42148,-4.28797 -8.40354,-12.43846 -4.76109,-19.57824 3.25589,-6.38208 10.36029,-10.03323 19.52264,-10.03323 9.16235,0 16.26674,3.65115 19.52264,10.03323 3.6483,7.15114 1.66,15.29034 -4.7867,19.59547 l -3.264,2.17971 3.4431,2.12793 c 9.4087,5.81487 10.0259,20.87478 1.2165,29.68409 -6.175,6.17498 -14.81599,7.89252 -24.50464,4.87068 z"
         id="path3031"
         inkscape:connector-curvature="0" />
      <path
         style="fill:#000000"
         d="m 995.10245,396.41741 c 2.69174,-1.44058 4.94465,-6.21109 4.94465,-10.47036 0,-6.79007 -3.89085,-11.5 -9.50004,-11.5 -5.61433,0 -9.5,4.71028 -9.5,11.51608 0,8.53556 7.38164,14.02596 14.05539,10.45428 z"
         id="path3029"
         inkscape:connector-curvature="0" />
      <path
         style="fill:#000000"
         d="m 996.59251,361.9925 c 5.39269,-5.39272 1.58863,-14.54545 -6.04545,-14.54545 -4.87658,0 -8.5,3.62342 -8.5,8.5 0,4.87658 3.62342,8.5 8.5,8.5 2.47924,0 4.35079,-0.75988 6.04545,-2.45455 z"
         id="path3027"
         inkscape:connector-curvature="0" />
      <path
         style="fill:#000000"
         d="m 262.63126,338.10893 c 0.35737,-0.68706 -5.20008,-156.61178 -5.59604,-157.00744 -0.28152,-0.2813 -4.38199,-0.82548 -9.11216,-1.20928 l -8.60031,-0.69783 0.46519,11.87634 c 3.57849,91.35997 5.29691,137.73878 5.24899,141.66635 -0.0321,2.6345 0.24126,5.27494 0.60756,5.86763 0.44701,0.72327 3.33552,0.84555 8.78429,0.37187 4.46505,-0.38817 8.15617,-0.77861 8.20248,-0.86764 z"
         id="path3025"
         inkscape:connector-curvature="0" />
    </g>
  </g>
  <g
     inkscape:label="HIDUSB"
     inkscape:groupmode="layer"
     id="layer1"
     style="display:inline"
     transform="translate(1159.8,320.6378)">
    <path
       id="path1334"
       d="m -351.69146,52.241192 22.2974,-36.39877 -15.9059,0 0,-186.044282 40.5977,36.22492 c 2.6212,3.08288 4.4601,7.11652 4.5619,11.26582 0,16.78561 0.01,26.753691 0.012,30.422881 -7.5165,2.487111 -12.942,9.167891 -12.942,17.110061 0,10.04736 8.6486,18.2012 19.3104,18.2012 10.6664,0 19.3119,-8.15311 19.3119,-18.2012 0,-7.94217 -5.4223,-14.62295 -12.9327,-17.110061 l 0.01,-30.066441 c 0,-8.14876 -4.7426,-16.68741 -10.3022,-22.12209 0.1651,0.14839 0.341,0.30262 0,-0.008 -0.1374,-0.11493 -43.0685,-38.43342 -43.0685,-38.43342 -2.6174,-3.07632 -4.4447,-7.10778 -4.5496,-11.25418 l 0,-21.04622 c 14.7484,-2.78972 25.86,-15.06741 25.86,-29.79511 0,-16.79143 -14.4382,-30.40249 -32.2446,-30.40249 -17.8118,0 -32.2508,13.61106 -32.2508,30.40249 0,14.73062 11.1209,27.00829 25.8817,29.79802 l 0,20.67742 c 0,0.053 0,0.1062 0,0.16002 l 0,45.73471 c -0.1119,4.13839 -1.9415,8.16475 -4.562,11.23818 0,0 -42.928,38.309761 -43.0669,38.428331 -0.3449,0.30697 -0.1651,0.15421 0,0.003 -5.5589,5.43469 -10.2984,13.976981 -10.2984,22.127191 l 0.01,28.97528 -12.9458,0 0,36.408239 38.6168,0 0,-36.408239 -12.9288,0 c 0,0 0.015,-7.63155 0.015,-29.33027 0.1011,-4.15003 1.9376,-8.18804 4.5588,-11.26946 l 40.6054,-36.232922 0,140.547442 -15.9313,0 22.2943,36.39877 z"
       inkscape:connector-curvature="0"
       style="fill:#ffffff;fill-opacity:1;stroke:none;display:inline;enable-background:new" />
  </g>
</svg>
