<?xml version="1.0" encoding="UTF-8" standalone="no"?>
<!-- Created with Inkscape (http://www.inkscape.org/) -->

<svg
   xmlns:osb="http://www.openswatchbook.org/uri/2009/osb"
   xmlns:dc="http://purl.org/dc/elements/1.1/"
   xmlns:cc="http://creativecommons.org/ns#"
   xmlns:rdf="http://www.w3.org/1999/02/22-rdf-syntax-ns#"
   xmlns:svg="http://www.w3.org/2000/svg"
   xmlns="http://www.w3.org/2000/svg"
   xmlns:sodipodi="http://sodipodi.sourceforge.net/DTD/sodipodi-0.dtd"
   xmlns:inkscape="http://www.inkscape.org/namespaces/inkscape"
   width="952.84003"
   height="403"
   id="svg2"
   version="1.1"
   inkscape:version="0.48.4 r9939"
   style="enable-background:new"
   sodipodi:docname="HornersHIDHelve.svg"
   inkscape:export-filename="L:\working\dave.thehorners.com\HIDHelve\artwork\HornersHIDHelve.png"
   inkscape:export-xdpi="26.799007"
   inkscape:export-ydpi="26.799007">
  <defs
     id="defs4">
    <linearGradient
       id="linearGradient5292"
       osb:paint="solid">
      <stop
         style="stop-color:#ea0000;stop-opacity:1;"
         offset="0"
         id="stop5294" />
    </linearGradient>
    <inkscape:perspective
       id="perspective9"
       inkscape:persp3d-origin="372.04724 : 350.78739 : 1"
       inkscape:vp_z="744.09448 : 526.18109 : 1"
       inkscape:vp_y="0 : 1000 : 0"
       inkscape:vp_x="0 : 526.18109 : 1"
       sodipodi:type="inkscape:persp3d" />
  </defs>
  <sodipodi:namedview
     id="base"
     pagecolor="#ffffff"
     bordercolor="#666666"
     borderopacity="1.0"
     inkscape:pageopacity="0.0"
     inkscape:pageshadow="2"
     inkscape:zoom="0.69999999"
     inkscape:cx="380.6598"
     inkscape:cy="254.3969"
     inkscape:document-units="px"
     inkscape:current-layer="layer2"
     showgrid="false"
     inkscape:snap-bbox="true"
     inkscape:bbox-paths="true"
     width="500px"
     fit-margin-top="0"
     fit-margin-left="0"
     fit-margin-right="0"
     fit-margin-bottom="0"
     borderlayer="true"
     inkscape:showpageshadow="false"
     showguides="true"
     inkscape:snap-global="false"
     inkscape:window-width="1483"
     inkscape:window-height="791"
     inkscape:window-x="3263"
     inkscape:window-y="1038"
     inkscape:window-maximized="0"
     inkscape:snap-from-guide="false">
    <inkscape:grid
       type="xygrid"
       id="grid5448"
       empspacing="5"
       visible="true"
       enabled="true"
       snapvisiblegridlinesonly="true"
       originx="1159.8px"
       originy="-970px"
       dotted="true" />
  </sodipodi:namedview>
  <metadata
     id="metadata7">
    <rdf:RDF>
      <cc:Work
         rdf:about="">
        <dc:format>image/svg+xml</dc:format>
        <dc:type
           rdf:resource="http://purl.org/dc/dcmitype/StillImage" />
        <dc:title></dc:title>
      </cc:Work>
    </rdf:RDF>
  </metadata>
  <g
     inkscape:groupmode="layer"
     id="layer2"
     inkscape:label="Helve"
     style="display:inline"
     transform="translate(1159.8,320.6378)">
    <path
       style="fill:#000000"
       d="m -285.48456,61.562741 c 39.45729,-1.92691 52.68127,-3.40834 60.66382,-6.79592 l 2.42307,-1.02829 -0.3055,-12.9074 c -0.36966,-15.61787 -1.49278,-22.48021 -6.74964,-41.24074045 -4.93587,-17.61498955 -17.75461,-55.36264955 -26.72702,-78.70370955 -2.66236,-6.92592 -6.54195,-17.26759 -8.62132,-22.981481 -3.21684,-8.83958 -7.47755,-19.57883 -15.40977,-38.84081 -0.8825,-2.143 -3.41652,-6.95966 -5.63114,-10.7037 -3.56104,-6.02029 -4.02794,-7.18953 -4.03825,-10.1129 l -0.0117,-3.30555 7.80014,0 7.80015,0 0.40103,-8.02778 c 1.45981,-29.22168 3.53116,-100.50641 2.93772,-101.09986 -0.69405,-0.69404 -9.36514,-0.69785 -13.21709,-0.006 l -2.14842,0.38599 0.41958,-10.17789 0.41958,-10.17789 -1.69456,-0.64427 c -1.1577,-0.44015 -4.79896,-0.43544 -11.49338,0.0149 -5.38935,0.36253 -29.34882,1.50897 -53.24327,2.54765 -23.89444,1.03868 -45.46178,2.05093 -47.92742,2.24946 l -4.48296,0.36096 -0.55407,9.5558 -0.55406,9.55566 -61.38889,5.15463 c -33.76389,2.83505 -64.47729,5.31094 -68.25201,5.50198 l -6.86311,0.34736 -16.35004,10.74528 c -12.22632,8.03516 -19.62645,12.38344 -29.3406,17.24039 -15.7845,7.89208 -35.6414,16.24949 -50.4535,21.23496 -21.4182,7.209 -65.7746,16.46565 -90.037,18.78965 -7.4454,0.71317 -19.0621,2.00209 -25.8148,2.86428 -19.9953,2.553 -60.2305,5.35331 -90.0371,6.26646 -23.7477,0.72752 -60.6156,3.60815 -88.77775,6.93654 -7.0991,0.83902 -14.6074,1.68057 -16.6852,1.8701 -16.558,1.51046 -50.006,4.8706 -53.83336,5.40803 -39.5507,5.55347 -50.7429,7.57424 -68.2928,12.33025 -27.8272,7.5412 -42.6621,13.17299 -56.2788,21.3653 -3.0355,1.8263 -10.3459,9.65302 -12.1301,12.98691 -1.5513,2.89862 -4.8828,13.18075 -5.6192,17.34281 -0.7161,4.04731 -0.6765,5.163721 0.3463,9.759261 2.7956,12.56078 18.1116,36.63311 28.7443,45.17775 1.4495,1.16486 4.373,2.74862 6.4967,3.51947 3.5438,1.28633 4.1429,1.33447 7.2881,0.5856 11.0279,-2.62572 19.1742,-7.73525 38.1651,-23.93779 7.0108,-5.9815 20.0117,-12.83879 32.0846,-16.9229 15.427,-5.2188 45.88466,-10.47943 73.26986,-12.65512 6.7528,-0.53649 15.6778,-1.29026 19.8334,-1.675031 4.1555,-0.38478 22.14725,-0.93435 39.98145,-1.22126 139.399,-2.24261 148.9811,-2.63932 190.1482,-7.87232 66.5718,-8.46235 97.1173,-14.21711 138.56969,-26.10639 7.12725,-2.04422 20.32843,-5.26901 29.33596,-7.16621 9.00753,-1.89719 19.75114,-4.29222 23.8747,-5.32229 4.12356,-1.03006 11.32238,-2.62678 15.99738,-3.54826 4.675,-0.92146 12.325,-2.61475 17,-3.76284 12.8457,-3.15466 35.21633,-5.36622 54.281,-5.36622 l 10.55047,0 -1.03767,2.17602 c -0.57072,1.19681 -1.48697,2.34857 -2.03611,2.55946 -0.54914,0.21089 -5.76431,0.64282 -11.58927,0.95985 -11.6779,0.63557 -14.37589,1.15516 -16.97544,3.26921 -3.63401,2.9553 -2.83383,9.96706 1.4096,12.35201 2.29239,1.2884 2.56403,1.29797 13.93251,0.49108 18.90146,-1.34154 24.58223,-0.22365 25.01611,4.9228 0.26354,3.12598 -0.63309,5.21297 -7.63145,17.76282 -17.03298,30.544511 -26.41205,48.340191 -36.77935,69.784521 -12.11407,25.05745 -24.48587,55.9197796 -28.49059,71.07177 l -2.36831,8.9606 7.31295,3.27628 c 7.90511,3.54157 10.84866,4.48169 26.16361,8.3562 30.78881,7.78922 67.56587,13.44061 101.72342,15.63146 13.95997,0.89539 52.52525,1.27174 65.48148,0.63901 z"
       id="path3059"
       inkscape:connector-curvature="0" />
    <path
       style="fill:#d30000;fill-opacity:1"
       d="m -1108.6692,-51.142713 c -8.8342,-4.01093 -27.3645,-30.97237 -30.7325,-44.715471 -1.0609,-4.329276 -1.061,-4.764666 0,-9.677246 1.9764,-9.17152 4.3116,-14.24686 9.1011,-19.78031 6.4475,-7.44895 14.2113,-11.77051 32.7188,-18.21223 19.5793,-6.81476 41.571,-12.535 58.9171,-15.32484 24.2398,-3.89859 41.72647,-6.13335 68.94447,-8.81098 14.025,-1.37974 31.5917,-3.21347 39.037,-4.07495 28.7106,-3.32201 66.50881,-6.18899 91.61121,-6.94868 27.6079,-0.83551 63.6296,-3.32916 82.4814,-5.70988 16.157,-2.04041 15.2868,-1.94451 31.16666,-3.43458 23.7617,-2.22966 66.61739,-11.19799 89.09259,-18.64424 16.28558,-5.39558 35.05185,-13.19445 51.62963,-21.45621 9.82489,-4.89637 17.30809,-9.26303 29.12422,-16.99481 l 15.90198,-10.40534 66.5795,-5.57204 c 36.61872,-3.06461 67.09083,-5.58019 67.71582,-5.59015 1.06147,-0.0169 1.10822,0.55224 0.70972,8.63928 -0.23464,4.76158 -0.50671,9.18823 -0.50671,9.18823 l -5.87337,51.25831 -4.47901,30.81559 -3.92844,0.41061 c -2.16064,0.22583 -8.06604,0.41863 -13.12311,0.42844 -18.56431,0.036 -37.86771,2.09892 -53.26875,5.6927 -14.3958,3.3592 -33.15538,7.5106 -52.57407,11.63437 -15.81577,3.35864 -41.67056,10.2023 -42.08025,11.13847 -0.11543,0.26377 -0.89373,0.47958 -1.72955,0.47958 -0.83581,0 -6.9747,1.41221 -13.64197,3.13824 -25.29027,6.54719 -58.97026,12.27726 -110.65934,18.82677 -37.14865,4.70709 -63.90165,6.20374 -119.83635,6.70405 -17.2554,0.15434 -31.6432,0.44737 -31.973,0.65119 -0.3298,0.20381 -16.8118,0.60213 -36.62661,0.88515 -32.3008,0.46137 -38.3713,0.71683 -58.6936,2.46995 -50.45777,4.352776 -79.34937,10.764207 -99.16667,22.006337 -5.7739,3.27541 -10.7217,6.83925 -18.5741,13.3784 -11.7676,9.79961 -15.4779,12.40565 -21.6729,15.22243 -7.9888,3.63242 -11.6166,4.18719 -15.5885,2.38386 z"
       id="path3033"
       inkscape:connector-curvature="0"
       sodipodi:nodetypes="cccssssssssssscscscccssssssssscssssscc" />
    <path
       style="fill:#d30000;fill-opacity:1;stroke:#ff2b1e;stroke-opacity:1"
       d="m -288.20159,-170.30769 c -0.22501,-0.43259 3.27412,-98.60742 3.52343,-98.85654 0.17725,-0.17711 2.75903,-0.51974 5.73729,-0.76139 l 5.41501,-0.43938 -0.2929,7.4777 c -2.25313,57.52294 -3.33509,86.72441 -3.30492,89.19733 0.0202,1.65876 -0.15191,3.32126 -0.38254,3.69443 -0.28145,0.45539 -2.10014,0.53239 -5.53085,0.23414 -2.81133,-0.2444 -5.13536,-0.49023 -5.16452,-0.54629 z"
       id="path3025" />
  </g>
  <g
     inkscape:label="HIDUSB"
     inkscape:groupmode="layer"
     id="layer1"
     style="display:inline"
     transform="translate(1159.8,320.6378)">
    <path
       id="path1334"
       d="m -348.83432,53.669761 22.2974,-36.39877 -15.9059,0 0,-186.044281 40.5977,36.22492 c 2.6212,3.08288 4.4601,7.11652 4.5619,11.26582 0,16.78561 0.01,26.753691 0.012,30.422881 -7.5165,2.48711 -12.942,9.16789 -12.942,17.11006 0,10.04736 8.6486,18.2012 19.3104,18.2012 10.6664,0 19.3119,-8.15311 19.3119,-18.2012 0,-7.94217 -5.4223,-14.62295 -12.9327,-17.11006 l 0.01,-30.066441 c 0,-8.14876 -4.7426,-16.68741 -10.3022,-22.12209 0.1651,0.14839 0.341,0.30262 0,-0.008 -0.1374,-0.11493 -43.0685,-38.43342 -43.0685,-38.43342 -2.6174,-3.07632 -4.4447,-7.10778 -4.5496,-11.25418 l 0,-21.04622 c 14.7484,-2.78972 25.86,-15.06741 25.86,-29.79511 0,-16.79143 -14.4382,-30.40249 -32.2446,-30.40249 -17.8118,0 -32.2508,13.61106 -32.2508,30.40249 0,14.73062 11.1209,27.00829 25.8817,29.79802 l 0,20.67742 c 0,0.053 0,0.1062 0,0.16002 l 0,45.73471 c -0.1119,4.13839 -1.9415,8.16475 -4.562,11.23818 0,0 -42.928,38.309761 -43.0669,38.428331 -0.3449,0.30697 -0.1651,0.15421 0,0.003 -5.5589,5.43469 -10.2984,13.97698 -10.2984,22.12719 l 0.01,28.97528 -12.9458,0 0,36.40824 38.6168,0 0,-36.40824 -12.9288,0 c 0,0 0.015,-7.63155 0.015,-29.33027 0.1011,-4.15003 1.9376,-8.18804 4.5588,-11.26946 l 40.6054,-36.232921 0,140.547441 -15.9313,0 22.2943,36.39877 z"
       inkscape:connector-curvature="0"
       style="fill:#ffffff;fill-opacity:1;stroke:none;display:inline;enable-background:new" />
  </g>
</svg>
